<mxfile host="app.diagrams.net" agent="Mozilla/5.0 (Windows NT 10.0; Win64; x64; rv:138.0) Gecko/20100101 Firefox/138.0" version="27.0.6">
  <diagram name="Страница — 1" id="2zW9iwPBiBufIxFtcA2H">
    <mxGraphModel dx="746" dy="1882" grid="1" gridSize="10" guides="1" tooltips="1" connect="1" arrows="1" fold="1" page="1" pageScale="1" pageWidth="827" pageHeight="1169" math="0" shadow="0">
      <root>
        <mxCell id="0" />
        <mxCell id="1" parent="0" />
        <mxCell id="t4_OTRly9yhREOdvGu7h-82" value="" style="rounded=0;whiteSpace=wrap;html=1;movable=0;resizable=0;rotatable=0;deletable=0;editable=0;locked=1;connectable=0;" vertex="1" parent="1">
          <mxGeometry x="20" y="-270" width="945" height="1390" as="geometry" />
        </mxCell>
        <mxCell id="t4_OTRly9yhREOdvGu7h-1" value="Администратор" style="shape=umlActor;verticalLabelPosition=bottom;verticalAlign=top;html=1;outlineConnect=0;" vertex="1" parent="1">
          <mxGeometry x="80" y="180" width="30" height="60" as="geometry" />
        </mxCell>
        <mxCell id="t4_OTRly9yhREOdvGu7h-3" value="Авторизация" style="ellipse;whiteSpace=wrap;html=1;" vertex="1" parent="1">
          <mxGeometry x="260" y="310" width="130" height="60" as="geometry" />
        </mxCell>
        <mxCell id="t4_OTRly9yhREOdvGu7h-8" value="" style="endArrow=classic;html=1;rounded=0;entryX=0;entryY=0.5;entryDx=0;entryDy=0;" edge="1" parent="1" source="t4_OTRly9yhREOdvGu7h-1" target="t4_OTRly9yhREOdvGu7h-3">
          <mxGeometry width="50" height="50" relative="1" as="geometry">
            <mxPoint x="180" y="390" as="sourcePoint" />
            <mxPoint x="230" y="340" as="targetPoint" />
          </mxGeometry>
        </mxCell>
        <mxCell id="t4_OTRly9yhREOdvGu7h-9" value="Покупатель" style="shape=umlActor;verticalLabelPosition=bottom;verticalAlign=top;html=1;outlineConnect=0;" vertex="1" parent="1">
          <mxGeometry x="80" y="460" width="30" height="60" as="geometry" />
        </mxCell>
        <mxCell id="t4_OTRly9yhREOdvGu7h-12" value="" style="endArrow=classic;html=1;rounded=0;entryX=0;entryY=0.5;entryDx=0;entryDy=0;" edge="1" parent="1" source="t4_OTRly9yhREOdvGu7h-9" target="t4_OTRly9yhREOdvGu7h-3">
          <mxGeometry width="50" height="50" relative="1" as="geometry">
            <mxPoint x="190" y="320" as="sourcePoint" />
            <mxPoint x="364" y="430" as="targetPoint" />
          </mxGeometry>
        </mxCell>
        <mxCell id="t4_OTRly9yhREOdvGu7h-13" value="Просмотр каталога" style="ellipse;whiteSpace=wrap;html=1;" vertex="1" parent="1">
          <mxGeometry x="400" y="310" width="130" height="60" as="geometry" />
        </mxCell>
        <mxCell id="t4_OTRly9yhREOdvGu7h-14" value="" style="endArrow=classic;html=1;rounded=0;exitX=1;exitY=0.3333333333333333;exitDx=0;exitDy=0;exitPerimeter=0;entryX=0;entryY=1;entryDx=0;entryDy=0;" edge="1" parent="1" source="t4_OTRly9yhREOdvGu7h-9" target="t4_OTRly9yhREOdvGu7h-13">
          <mxGeometry width="50" height="50" relative="1" as="geometry">
            <mxPoint x="160" y="556" as="sourcePoint" />
            <mxPoint x="420" y="370" as="targetPoint" />
          </mxGeometry>
        </mxCell>
        <mxCell id="t4_OTRly9yhREOdvGu7h-15" value="" style="endArrow=classic;html=1;rounded=0;entryX=0;entryY=0;entryDx=0;entryDy=0;" edge="1" parent="1" source="t4_OTRly9yhREOdvGu7h-1" target="t4_OTRly9yhREOdvGu7h-13">
          <mxGeometry width="50" height="50" relative="1" as="geometry">
            <mxPoint x="190" y="356" as="sourcePoint" />
            <mxPoint x="340" y="220" as="targetPoint" />
          </mxGeometry>
        </mxCell>
        <mxCell id="t4_OTRly9yhREOdvGu7h-16" value="Выполнение фильтрации" style="ellipse;whiteSpace=wrap;html=1;" vertex="1" parent="1">
          <mxGeometry x="610" y="310" width="130" height="60" as="geometry" />
        </mxCell>
        <mxCell id="t4_OTRly9yhREOdvGu7h-18" value="По цене" style="ellipse;whiteSpace=wrap;html=1;" vertex="1" parent="1">
          <mxGeometry x="800" y="280" width="130" height="60" as="geometry" />
        </mxCell>
        <mxCell id="t4_OTRly9yhREOdvGu7h-19" value="&lt;div&gt;По бренду&lt;/div&gt;" style="ellipse;whiteSpace=wrap;html=1;" vertex="1" parent="1">
          <mxGeometry x="800" y="350" width="130" height="60" as="geometry" />
        </mxCell>
        <mxCell id="t4_OTRly9yhREOdvGu7h-20" value="" style="endArrow=none;dashed=1;html=1;rounded=0;entryX=0;entryY=0.5;entryDx=0;entryDy=0;exitX=1;exitY=0.5;exitDx=0;exitDy=0;" edge="1" parent="1" source="t4_OTRly9yhREOdvGu7h-16" target="t4_OTRly9yhREOdvGu7h-18">
          <mxGeometry width="50" height="50" relative="1" as="geometry">
            <mxPoint x="710" y="330" as="sourcePoint" />
            <mxPoint x="710" y="320" as="targetPoint" />
          </mxGeometry>
        </mxCell>
        <mxCell id="t4_OTRly9yhREOdvGu7h-21" value="" style="endArrow=none;dashed=1;html=1;rounded=0;entryX=0;entryY=0.5;entryDx=0;entryDy=0;exitX=1;exitY=0.5;exitDx=0;exitDy=0;" edge="1" parent="1" source="t4_OTRly9yhREOdvGu7h-16" target="t4_OTRly9yhREOdvGu7h-19">
          <mxGeometry width="50" height="50" relative="1" as="geometry">
            <mxPoint x="750" y="390" as="sourcePoint" />
            <mxPoint x="790" y="360" as="targetPoint" />
          </mxGeometry>
        </mxCell>
        <mxCell id="t4_OTRly9yhREOdvGu7h-28" value="" style="endArrow=none;dashed=1;html=1;rounded=0;exitX=0;exitY=0.5;exitDx=0;exitDy=0;entryX=1;entryY=0.5;entryDx=0;entryDy=0;" edge="1" parent="1" source="t4_OTRly9yhREOdvGu7h-16" target="t4_OTRly9yhREOdvGu7h-13">
          <mxGeometry width="50" height="50" relative="1" as="geometry">
            <mxPoint x="630" y="370" as="sourcePoint" />
            <mxPoint x="680" y="320" as="targetPoint" />
          </mxGeometry>
        </mxCell>
        <mxCell id="t4_OTRly9yhREOdvGu7h-29" value="&lt;div&gt;Управление заказами&lt;/div&gt;" style="ellipse;whiteSpace=wrap;html=1;" vertex="1" parent="1">
          <mxGeometry x="400" y="150" width="130" height="60" as="geometry" />
        </mxCell>
        <mxCell id="t4_OTRly9yhREOdvGu7h-30" value="" style="endArrow=classic;html=1;rounded=0;entryX=0;entryY=0.5;entryDx=0;entryDy=0;" edge="1" parent="1" target="t4_OTRly9yhREOdvGu7h-29">
          <mxGeometry width="50" height="50" relative="1" as="geometry">
            <mxPoint x="120" y="200" as="sourcePoint" />
            <mxPoint x="680" y="320" as="targetPoint" />
          </mxGeometry>
        </mxCell>
        <mxCell id="t4_OTRly9yhREOdvGu7h-31" value="" style="endArrow=none;dashed=1;html=1;rounded=0;exitX=1;exitY=0.5;exitDx=0;exitDy=0;entryX=0;entryY=0.5;entryDx=0;entryDy=0;" edge="1" parent="1" source="t4_OTRly9yhREOdvGu7h-29" target="t4_OTRly9yhREOdvGu7h-32">
          <mxGeometry width="50" height="50" relative="1" as="geometry">
            <mxPoint x="660" y="370" as="sourcePoint" />
            <mxPoint x="610" y="180" as="targetPoint" />
          </mxGeometry>
        </mxCell>
        <mxCell id="t4_OTRly9yhREOdvGu7h-32" value="&lt;div&gt;Подтверждение заказов&lt;/div&gt;" style="ellipse;whiteSpace=wrap;html=1;" vertex="1" parent="1">
          <mxGeometry x="610" y="120" width="130" height="60" as="geometry" />
        </mxCell>
        <mxCell id="t4_OTRly9yhREOdvGu7h-33" value="" style="endArrow=none;dashed=1;html=1;rounded=0;exitX=1;exitY=0.5;exitDx=0;exitDy=0;entryX=0;entryY=0.5;entryDx=0;entryDy=0;" edge="1" parent="1" target="t4_OTRly9yhREOdvGu7h-34" source="t4_OTRly9yhREOdvGu7h-29">
          <mxGeometry width="50" height="50" relative="1" as="geometry">
            <mxPoint x="530" y="250" as="sourcePoint" />
            <mxPoint x="610" y="250" as="targetPoint" />
          </mxGeometry>
        </mxCell>
        <mxCell id="t4_OTRly9yhREOdvGu7h-34" value="&lt;div&gt;Удаление заказов&lt;/div&gt;" style="ellipse;whiteSpace=wrap;html=1;" vertex="1" parent="1">
          <mxGeometry x="610" y="190" width="130" height="60" as="geometry" />
        </mxCell>
        <mxCell id="t4_OTRly9yhREOdvGu7h-35" value="Управление товарами" style="ellipse;whiteSpace=wrap;html=1;" vertex="1" parent="1">
          <mxGeometry x="400" y="-50" width="130" height="60" as="geometry" />
        </mxCell>
        <mxCell id="t4_OTRly9yhREOdvGu7h-36" value="" style="endArrow=classic;html=1;rounded=0;entryX=0;entryY=0.5;entryDx=0;entryDy=0;" edge="1" parent="1" target="t4_OTRly9yhREOdvGu7h-35">
          <mxGeometry width="50" height="50" relative="1" as="geometry">
            <mxPoint x="110" y="190" as="sourcePoint" />
            <mxPoint x="680" y="180" as="targetPoint" />
          </mxGeometry>
        </mxCell>
        <mxCell id="t4_OTRly9yhREOdvGu7h-37" value="" style="endArrow=none;dashed=1;html=1;rounded=0;exitX=1;exitY=0.5;exitDx=0;exitDy=0;entryX=0;entryY=0.5;entryDx=0;entryDy=0;" edge="1" parent="1" target="t4_OTRly9yhREOdvGu7h-38" source="t4_OTRly9yhREOdvGu7h-35">
          <mxGeometry width="50" height="50" relative="1" as="geometry">
            <mxPoint x="530" y="50" as="sourcePoint" />
            <mxPoint x="610" y="50" as="targetPoint" />
          </mxGeometry>
        </mxCell>
        <mxCell id="t4_OTRly9yhREOdvGu7h-38" value="Удаление товаров" style="ellipse;whiteSpace=wrap;html=1;" vertex="1" parent="1">
          <mxGeometry x="610" y="-50" width="130" height="60" as="geometry" />
        </mxCell>
        <mxCell id="t4_OTRly9yhREOdvGu7h-39" value="" style="endArrow=none;dashed=1;html=1;rounded=0;exitX=1;exitY=0.5;exitDx=0;exitDy=0;entryX=0;entryY=0.5;entryDx=0;entryDy=0;" edge="1" parent="1" target="t4_OTRly9yhREOdvGu7h-40" source="t4_OTRly9yhREOdvGu7h-35">
          <mxGeometry width="50" height="50" relative="1" as="geometry">
            <mxPoint x="530" y="140" as="sourcePoint" />
            <mxPoint x="610" y="130" as="targetPoint" />
          </mxGeometry>
        </mxCell>
        <mxCell id="t4_OTRly9yhREOdvGu7h-40" value="Редактирование товаров" style="ellipse;whiteSpace=wrap;html=1;" vertex="1" parent="1">
          <mxGeometry x="610" y="30" width="130" height="60" as="geometry" />
        </mxCell>
        <mxCell id="t4_OTRly9yhREOdvGu7h-43" value="" style="endArrow=none;dashed=1;html=1;rounded=0;exitX=1;exitY=0.5;exitDx=0;exitDy=0;entryX=0;entryY=0.5;entryDx=0;entryDy=0;" edge="1" parent="1" target="t4_OTRly9yhREOdvGu7h-44" source="t4_OTRly9yhREOdvGu7h-35">
          <mxGeometry width="50" height="50" relative="1" as="geometry">
            <mxPoint x="530" y="-90" as="sourcePoint" />
            <mxPoint x="610" y="-30" as="targetPoint" />
          </mxGeometry>
        </mxCell>
        <mxCell id="t4_OTRly9yhREOdvGu7h-44" value="Добавление товаров" style="ellipse;whiteSpace=wrap;html=1;" vertex="1" parent="1">
          <mxGeometry x="610" y="-130" width="130" height="60" as="geometry" />
        </mxCell>
        <mxCell id="t4_OTRly9yhREOdvGu7h-45" value="Редактирование данных пользователей" style="ellipse;whiteSpace=wrap;html=1;" vertex="1" parent="1">
          <mxGeometry x="390" y="-190" width="150" height="70" as="geometry" />
        </mxCell>
        <mxCell id="t4_OTRly9yhREOdvGu7h-46" value="" style="endArrow=classic;html=1;rounded=0;entryX=0;entryY=0.5;entryDx=0;entryDy=0;exitX=0.75;exitY=0.1;exitDx=0;exitDy=0;exitPerimeter=0;" edge="1" parent="1" target="t4_OTRly9yhREOdvGu7h-45" source="t4_OTRly9yhREOdvGu7h-1">
          <mxGeometry width="50" height="50" relative="1" as="geometry">
            <mxPoint x="110" as="sourcePoint" />
            <mxPoint x="680" y="-10" as="targetPoint" />
          </mxGeometry>
        </mxCell>
        <mxCell id="t4_OTRly9yhREOdvGu7h-49" value="Регистрация" style="ellipse;whiteSpace=wrap;html=1;" vertex="1" parent="1">
          <mxGeometry x="400" y="490" width="130" height="60" as="geometry" />
        </mxCell>
        <mxCell id="t4_OTRly9yhREOdvGu7h-51" value="" style="endArrow=classic;html=1;rounded=0;entryX=0;entryY=0.5;entryDx=0;entryDy=0;" edge="1" parent="1" target="t4_OTRly9yhREOdvGu7h-49">
          <mxGeometry width="50" height="50" relative="1" as="geometry">
            <mxPoint x="110" y="490" as="sourcePoint" />
            <mxPoint x="540" y="370" as="targetPoint" />
          </mxGeometry>
        </mxCell>
        <mxCell id="t4_OTRly9yhREOdvGu7h-52" value="Смена данных аккаунта" style="ellipse;whiteSpace=wrap;html=1;" vertex="1" parent="1">
          <mxGeometry x="400" y="600" width="130" height="60" as="geometry" />
        </mxCell>
        <mxCell id="t4_OTRly9yhREOdvGu7h-53" value="" style="endArrow=classic;html=1;rounded=0;entryX=0;entryY=0.5;entryDx=0;entryDy=0;" edge="1" parent="1" target="t4_OTRly9yhREOdvGu7h-52">
          <mxGeometry width="50" height="50" relative="1" as="geometry">
            <mxPoint x="105" y="500" as="sourcePoint" />
            <mxPoint x="540" y="480" as="targetPoint" />
          </mxGeometry>
        </mxCell>
        <mxCell id="t4_OTRly9yhREOdvGu7h-54" value="Фото профиля" style="ellipse;whiteSpace=wrap;html=1;" vertex="1" parent="1">
          <mxGeometry x="600" y="565" width="130" height="60" as="geometry" />
        </mxCell>
        <mxCell id="t4_OTRly9yhREOdvGu7h-55" value="&lt;div&gt;Имя&lt;/div&gt;" style="ellipse;whiteSpace=wrap;html=1;" vertex="1" parent="1">
          <mxGeometry x="600" y="635" width="130" height="60" as="geometry" />
        </mxCell>
        <mxCell id="t4_OTRly9yhREOdvGu7h-56" value="" style="endArrow=none;dashed=1;html=1;rounded=0;entryX=0;entryY=0.5;entryDx=0;entryDy=0;exitX=1;exitY=0.5;exitDx=0;exitDy=0;" edge="1" parent="1" target="t4_OTRly9yhREOdvGu7h-54" source="t4_OTRly9yhREOdvGu7h-52">
          <mxGeometry width="50" height="50" relative="1" as="geometry">
            <mxPoint x="540" y="640" as="sourcePoint" />
            <mxPoint x="510" y="620" as="targetPoint" />
          </mxGeometry>
        </mxCell>
        <mxCell id="t4_OTRly9yhREOdvGu7h-57" value="" style="endArrow=none;dashed=1;html=1;rounded=0;entryX=0;entryY=0.5;entryDx=0;entryDy=0;" edge="1" parent="1" target="t4_OTRly9yhREOdvGu7h-55">
          <mxGeometry width="50" height="50" relative="1" as="geometry">
            <mxPoint x="530" y="630" as="sourcePoint" />
            <mxPoint x="590" y="660" as="targetPoint" />
          </mxGeometry>
        </mxCell>
        <mxCell id="t4_OTRly9yhREOdvGu7h-58" value="Добавление товара в корзину" style="ellipse;whiteSpace=wrap;html=1;" vertex="1" parent="1">
          <mxGeometry x="400" y="700" width="130" height="60" as="geometry" />
        </mxCell>
        <mxCell id="t4_OTRly9yhREOdvGu7h-59" value="" style="endArrow=classic;html=1;rounded=0;entryX=0;entryY=0.5;entryDx=0;entryDy=0;" edge="1" parent="1" target="t4_OTRly9yhREOdvGu7h-58">
          <mxGeometry width="50" height="50" relative="1" as="geometry">
            <mxPoint x="110" y="510" as="sourcePoint" />
            <mxPoint x="540" y="600" as="targetPoint" />
          </mxGeometry>
        </mxCell>
        <mxCell id="t4_OTRly9yhREOdvGu7h-60" value="Написание отзывов" style="ellipse;whiteSpace=wrap;html=1;" vertex="1" parent="1">
          <mxGeometry x="400" y="800" width="130" height="60" as="geometry" />
        </mxCell>
        <mxCell id="t4_OTRly9yhREOdvGu7h-61" value="" style="endArrow=classic;html=1;rounded=0;entryX=0;entryY=0.5;entryDx=0;entryDy=0;" edge="1" parent="1" target="t4_OTRly9yhREOdvGu7h-60">
          <mxGeometry width="50" height="50" relative="1" as="geometry">
            <mxPoint x="130" y="540" as="sourcePoint" />
            <mxPoint x="540" y="700" as="targetPoint" />
          </mxGeometry>
        </mxCell>
        <mxCell id="t4_OTRly9yhREOdvGu7h-62" value="Оформление заказов" style="ellipse;whiteSpace=wrap;html=1;" vertex="1" parent="1">
          <mxGeometry x="400" y="900" width="130" height="60" as="geometry" />
        </mxCell>
        <mxCell id="t4_OTRly9yhREOdvGu7h-63" value="" style="endArrow=classic;html=1;rounded=0;entryX=0;entryY=0.5;entryDx=0;entryDy=0;" edge="1" parent="1" target="t4_OTRly9yhREOdvGu7h-62">
          <mxGeometry width="50" height="50" relative="1" as="geometry">
            <mxPoint x="120" y="550" as="sourcePoint" />
            <mxPoint x="540" y="800" as="targetPoint" />
          </mxGeometry>
        </mxCell>
        <mxCell id="t4_OTRly9yhREOdvGu7h-65" value="Просмотр собственных заказов" style="ellipse;whiteSpace=wrap;html=1;" vertex="1" parent="1">
          <mxGeometry x="400" y="990" width="130" height="60" as="geometry" />
        </mxCell>
        <mxCell id="t4_OTRly9yhREOdvGu7h-66" value="" style="endArrow=classic;html=1;rounded=0;entryX=0;entryY=0.5;entryDx=0;entryDy=0;" edge="1" parent="1" target="t4_OTRly9yhREOdvGu7h-65">
          <mxGeometry width="50" height="50" relative="1" as="geometry">
            <mxPoint x="110" y="550" as="sourcePoint" />
            <mxPoint x="540" y="890" as="targetPoint" />
          </mxGeometry>
        </mxCell>
        <mxCell id="t4_OTRly9yhREOdvGu7h-69" value="Extends" style="text;html=1;align=center;verticalAlign=middle;whiteSpace=wrap;rounded=0;" vertex="1" parent="1">
          <mxGeometry x="540" y="310" width="60" height="30" as="geometry" />
        </mxCell>
        <mxCell id="t4_OTRly9yhREOdvGu7h-70" value="Extends" style="text;html=1;align=center;verticalAlign=middle;whiteSpace=wrap;rounded=0;rotation=-30;" vertex="1" parent="1">
          <mxGeometry x="730" y="295" width="60" height="30" as="geometry" />
        </mxCell>
        <mxCell id="t4_OTRly9yhREOdvGu7h-74" value="Extends" style="text;html=1;align=center;verticalAlign=middle;whiteSpace=wrap;rounded=0;rotation=30;" vertex="1" parent="1">
          <mxGeometry x="730" y="360" width="60" height="30" as="geometry" />
        </mxCell>
        <mxCell id="t4_OTRly9yhREOdvGu7h-75" value="Extends" style="text;html=1;align=center;verticalAlign=middle;whiteSpace=wrap;rounded=0;rotation=-15;" vertex="1" parent="1">
          <mxGeometry x="540" y="135" width="60" height="30" as="geometry" />
        </mxCell>
        <mxCell id="t4_OTRly9yhREOdvGu7h-76" value="Extends" style="text;html=1;align=center;verticalAlign=middle;whiteSpace=wrap;rounded=0;rotation=30;" vertex="1" parent="1">
          <mxGeometry x="530" y="205" width="60" height="30" as="geometry" />
        </mxCell>
        <mxCell id="t4_OTRly9yhREOdvGu7h-77" value="Extends" style="text;html=1;align=center;verticalAlign=middle;whiteSpace=wrap;rounded=0;" vertex="1" parent="1">
          <mxGeometry x="550" y="-50" width="60" height="30" as="geometry" />
        </mxCell>
        <mxCell id="t4_OTRly9yhREOdvGu7h-78" value="Extends" style="text;html=1;align=center;verticalAlign=middle;whiteSpace=wrap;rounded=0;rotation=-45;" vertex="1" parent="1">
          <mxGeometry x="530" y="-90" width="60" height="30" as="geometry" />
        </mxCell>
        <mxCell id="t4_OTRly9yhREOdvGu7h-79" value="Extends" style="text;html=1;align=center;verticalAlign=middle;whiteSpace=wrap;rounded=0;rotation=45;" vertex="1" parent="1">
          <mxGeometry x="530" y="20" width="60" height="30" as="geometry" />
        </mxCell>
        <mxCell id="t4_OTRly9yhREOdvGu7h-80" value="Extends" style="text;html=1;align=center;verticalAlign=middle;whiteSpace=wrap;rounded=0;rotation=-30;" vertex="1" parent="1">
          <mxGeometry x="530" y="580" width="60" height="30" as="geometry" />
        </mxCell>
        <mxCell id="t4_OTRly9yhREOdvGu7h-81" value="Extends" style="text;html=1;align=center;verticalAlign=middle;whiteSpace=wrap;rounded=0;rotation=30;" vertex="1" parent="1">
          <mxGeometry x="530" y="650" width="60" height="30" as="geometry" />
        </mxCell>
      </root>
    </mxGraphModel>
  </diagram>
</mxfile>
